<svg width="64" height="64" viewBox="0 0 64 64" fill="none" xmlns="http://www.w3.org/2000/svg">
  <!-- Wallet shadow -->
  <ellipse cx="32" cy="58" rx="24" ry="4" fill="#000000" opacity="0.1"/>

  <!-- Wallet base -->
  <rect x="8" y="22" width="48" height="32" rx="4" fill="url(#walletGradient)" stroke="#D97706" stroke-width="1"/>

  <!-- Wallet fold -->
  <path d="M8 26C8 23.7909 9.79086 22 12 22H52C54.2091 22 56 23.7909 56 26V30H8V26Z" fill="url(#foldGradient)"/>

  <!-- Wallet clasp -->
  <circle cx="48" cy="38" r="4" fill="url(#claspGradient)" stroke="#92400E" stroke-width="0.5"/>
  <circle cx="48" cy="38" r="1.5" fill="#451A03"/>

  <!-- Bitcoin symbol background circle -->
  <circle cx="32" cy="38" r="12" fill="url(#bitcoinBg)" stroke="#DC2626" stroke-width="0.5"/>

  <!-- Bitcoin "B" symbol -->
  <g transform="translate(32, 38)">
    <!-- Vertical lines -->
    <rect x="-1" y="-10" width="2" height="4" fill="#FFFFFF"/>
    <rect x="-1" y="6" width="2" height="4" fill="#FFFFFF"/>
    <rect x="1" y="-10" width="2" height="4" fill="#FFFFFF"/>
    <rect x="1" y="6" width="2" height="4" fill="#FFFFFF"/>

    <!-- Bitcoin B -->
    <path d="M-6 -6V6H2C4.5 6 6 4.5 6 3C6 1.8 5.2 0.8 4 0.5C5.2 0.2 6 -0.8 6 -2C6 -4.5 4.5 -6 2 -6H-6Z" fill="#FFFFFF"/>
    <path d="M-2 -3H1C2 -3 2.5 -2.5 2.5 -2C2.5 -1.5 2 -1 1 -1H-2V-3Z" fill="#F59E0B"/>
    <path d="M-2 1H2C3 1 3.5 1.5 3.5 2C3.5 2.5 3 3 2 3H-2V1Z" fill="#F59E0B"/>
  </g>

  <!-- Gradient definitions -->
  <defs>
    <linearGradient id="walletGradient" x1="8" y1="22" x2="56" y2="54" gradientUnits="userSpaceOnUse">
      <stop offset="0%" stop-color="#F59E0B"/>
      <stop offset="100%" stop-color="#D97706"/>
    </linearGradient>

    <linearGradient id="foldGradient" x1="8" y1="22" x2="56" y2="30" gradientUnits="userSpaceOnUse">
      <stop offset="0%" stop-color="#FBBF24"/>
      <stop offset="100%" stop-color="#F59E0B"/>
    </linearGradient>

    <radialGradient id="claspGradient" cx="48" cy="38" r="4" gradientUnits="userSpaceOnUse">
      <stop offset="0%" stop-color="#6B7280"/>
      <stop offset="100%" stop-color="#374151"/>
    </radialGradient>

    <radialGradient id="bitcoinBg" cx="32" cy="38" r="12" gradientUnits="userSpaceOnUse">
      <stop offset="0%" stop-color="#FBBF24"/>
      <stop offset="100%" stop-color="#F59E0B"/>
    </radialGradient>
  </defs>
</svg>